<?xml version="1.0" encoding="utf-8"?>
<!-- Generator: Adobe Illustrator 24.0.0, SVG Export Plug-In . SVG Version: 6.00 Build 0)  -->
<svg version="1.1" id="Layer_1" xmlns="http://www.w3.org/2000/svg" xmlns:xlink="http://www.w3.org/1999/xlink" x="0px" y="0px"
	 viewBox="0 0 208.6 58.5" style="enable-background:new 0 0 208.6 58.5;" xml:space="preserve">
<style type="text/css">
	.st0{fill:#002F43;}
	.st1{clip-path:url(#SVGID_1_);fill:#002F43;}
	.st2{fill:#E94E24;}
	.st3{clip-path:url(#SVGID_2_);fill:#002F43;}
	.st4{clip-path:url(#SVGID_3_);fill:#002F43;}
	.st5{clip-path:url(#SVGID_4_);fill:#002F43;}
</style>
<g>
	<polygon class="st0" points="0,38.6 0,21.2 4.5,21.2 4.5,34.7 12.8,34.7 12.8,38.6 	"/>
	<g>
		<defs>
			<rect id="SVGID_9_" x="-1032.9" y="-631" width="1920" height="1080"/>
		</defs>
		<clipPath id="SVGID_1_">
			<use xlink:href="#SVGID_9_"  style="overflow:visible;"/>
		</clipPath>
		<path class="st1" d="M27.3,34.9c1.3,0,2.4-0.5,3.3-1.4c0.9-0.9,1.3-2.1,1.3-3.5s-0.4-2.6-1.3-3.5c-0.9-0.9-1.9-1.4-3.3-1.4
			c-1.3,0-2.4,0.5-3.3,1.4c-0.9,0.9-1.3,2.1-1.3,3.5s0.4,2.6,1.3,3.5C24.9,34.4,26,34.9,27.3,34.9 M27.3,39c-2.6,0-4.8-0.9-6.6-2.6
			c-1.7-1.8-2.6-3.9-2.6-6.4c0-2.5,0.9-4.7,2.6-6.4c1.7-1.8,3.9-2.6,6.6-2.6c2.6,0,4.8,0.9,6.6,2.6c1.7,1.8,2.6,3.9,2.6,6.4
			c0,2.5-0.9,4.7-2.6,6.4C32.2,38.1,30,39,27.3,39"/>
		<path class="st1" d="M44.7,36.5c-1.8-1.7-2.8-3.9-2.8-6.5c0-2.7,0.9-4.8,2.7-6.5c1.8-1.7,4.2-2.5,6.9-2.5c1.6,0,3.1,0.3,4.5,1v4.4
			c-1.4-0.8-2.8-1.3-4.5-1.3c-1.5,0-2.7,0.5-3.7,1.4c-1,0.9-1.5,2.1-1.5,3.5c0,1.4,0.5,2.6,1.5,3.6c1,0.9,2.3,1.4,3.8,1.4
			c1.8,0,3.4-0.5,4.6-1.4v4.4c-1.4,0.7-3,1.1-4.8,1.1C48.8,39,46.5,38.2,44.7,36.5"/>
	</g>
	<polygon class="st0" points="90,38.6 90,25.2 84.8,25.2 84.8,21.2 99.8,21.2 99.8,25.2 94.5,25.2 94.5,38.6 	"/>
	<polygon class="st0" points="106.7,38.6 106.7,21.2 119.9,21.2 119.9,25.2 111.2,25.2 111.2,27.5 118.1,27.5 118.1,31.3 
		111.2,31.3 111.2,34.7 119.9,34.7 119.9,38.6 	"/>
	<polygon class="st0" points="127.9,38.6 127.9,21.2 132.4,21.2 132.4,34.7 140.8,34.7 140.8,38.6 	"/>
	<polygon class="st0" points="147.6,38.6 147.6,21.2 152.1,21.2 152.1,34.7 160.5,34.7 160.5,38.6 	"/>
	<rect x="167.4" y="21.2" class="st0" width="4.5" height="17.4"/>
	<polygon class="st0" points="71.7,26.7 76.4,38.6 81.2,38.6 73.9,21.1 69.6,21.1 62.3,38.6 67.1,38.6 	"/>
	<polygon class="st2" points="189.3,26.8 183.6,21.1 185,19.7 189.3,24 193.6,19.7 195,21.1 	"/>
	<polygon class="st2" points="200.4,27 192.3,27 192.3,25 198.4,25 198.4,18.9 200.4,18.9 	"/>
	<polygon class="st2" points="202.7,25 201.3,23.6 205.6,19.3 201.3,15 202.7,13.6 208.4,19.3 	"/>
	<polygon class="st2" points="208.6,16.2 206.6,16.2 206.6,10.2 200.5,10.2 200.5,8.2 208.6,8.2 	"/>
	<polygon class="st2" points="205.2,7.3 200.9,3 196.6,7.3 195.2,5.9 200.9,0.2 206.6,5.9 	"/>
	<polygon class="st2" points="191.8,8.1 189.8,8.1 189.8,0 197.8,0 197.8,2 191.8,2 	"/>
	<polygon class="st2" points="187.5,13.4 181.8,7.7 187.5,2 188.9,3.4 184.6,7.7 188.9,12 	"/>
	<polygon class="st2" points="189.7,18.8 181.6,18.8 181.6,10.7 183.6,10.7 183.6,16.8 189.7,16.8 	"/>
	<path class="st0" d="M83.6,55H87l-1.7-3.7L83.6,55z M81.6,57.7l3.3-7.4h0.7l3.3,7.4h-0.8l-0.9-2h-3.9l-0.9,2H81.6z"/>
	<g>
		<defs>
			<rect id="SVGID_11_" x="-1032.9" y="-631" width="1920" height="1080"/>
		</defs>
		<clipPath id="SVGID_2_">
			<use xlink:href="#SVGID_11_"  style="overflow:visible;"/>
		</clipPath>
		<path class="st3" d="M93.5,57H95c1,0,1.8-0.3,2.4-0.8c0.6-0.5,0.9-1.3,0.9-2.2c0-0.9-0.3-1.6-0.9-2.2c-0.6-0.5-1.4-0.8-2.4-0.8
			h-1.5V57z M92.7,57.7v-7.4h2.4c1.2,0,2.2,0.3,2.9,1c0.7,0.7,1.1,1.6,1.1,2.7c0,1.1-0.4,2-1.1,2.7c-0.7,0.7-1.7,1-2.9,1H92.7z"/>
	</g>
	<polygon class="st0" points="105.4,57.8 102.2,50.3 103,50.3 105.8,56.7 108.5,50.3 109.4,50.3 106.1,57.8 	"/>
	<g>
		<defs>
			<rect id="SVGID_13_" x="-1032.9" y="-631" width="1920" height="1080"/>
		</defs>
		<clipPath id="SVGID_3_">
			<use xlink:href="#SVGID_13_"  style="overflow:visible;"/>
		</clipPath>
		<path class="st4" d="M116.2,57.1c0.8,0,1.5-0.3,2.1-0.9c0.6-0.6,0.8-1.3,0.8-2.2c0-0.9-0.3-1.6-0.8-2.2c-0.6-0.6-1.3-0.9-2.1-0.9
			c-0.8,0-1.5,0.3-2.1,0.9c-0.6,0.6-0.8,1.3-0.8,2.2c0,0.9,0.3,1.6,0.8,2.2C114.6,56.8,115.3,57.1,116.2,57.1 M116.2,50.2
			c1.1,0,1.9,0.4,2.6,1.1c0.7,0.7,1.1,1.6,1.1,2.7c0,1.1-0.4,2-1.1,2.7c-0.7,0.7-1.6,1.1-2.6,1.1c-1.1,0-2-0.4-2.7-1.1
			c-0.7-0.7-1.1-1.6-1.1-2.7c0-1.1,0.3-2,1.1-2.7C114.2,50.6,115.1,50.2,116.2,50.2"/>
		<path class="st4" d="M124.7,56.8c-0.7-0.7-1.1-1.6-1.1-2.7s0.4-2,1.1-2.7c0.7-0.7,1.6-1.1,2.7-1.1c0.9,0,1.7,0.2,2.3,0.7v0.8
			c-0.7-0.5-1.4-0.8-2.3-0.8c-0.9,0-1.6,0.3-2.2,0.9c-0.6,0.6-0.9,1.3-0.9,2.2c0,0.9,0.3,1.6,0.9,2.2c0.6,0.6,1.3,0.9,2.1,0.9
			c0.9,0,1.6-0.3,2.1-0.8v-2.9h0.8v3.2c-0.6,0.7-1.7,1.2-2.9,1.2C126.4,57.9,125.5,57.5,124.7,56.8"/>
	</g>
	<path class="st0" d="M135.7,55h3.4l-1.7-3.7L135.7,55z M133.8,57.7l3.3-7.4h0.7l3.3,7.4h-0.8l-0.9-2h-3.9l-0.9,2H133.8z"/>
	<g>
		<defs>
			<rect id="SVGID_15_" x="-1032.9" y="-631" width="1920" height="1080"/>
		</defs>
		<clipPath id="SVGID_4_">
			<use xlink:href="#SVGID_15_"  style="overflow:visible;"/>
		</clipPath>
		<path class="st5" d="M145.6,57h1.5c1,0,1.8-0.3,2.4-0.8c0.6-0.5,0.9-1.3,0.9-2.2c0-0.9-0.3-1.6-0.9-2.2c-0.6-0.5-1.4-0.8-2.4-0.8
			h-1.5V57z M144.8,57.7v-7.4h2.4c1.2,0,2.2,0.3,2.9,1c0.7,0.7,1.1,1.6,1.1,2.7c0,1.1-0.4,2-1.1,2.7c-0.7,0.7-1.7,1-2.9,1H144.8z"/>
		<path class="st5" d="M158.8,57.1c0.8,0,1.5-0.3,2.1-0.9c0.6-0.6,0.8-1.3,0.8-2.2c0-0.9-0.3-1.6-0.8-2.2c-0.6-0.6-1.3-0.9-2.1-0.9
			c-0.8,0-1.5,0.3-2.1,0.9c-0.6,0.6-0.8,1.3-0.8,2.2c0,0.9,0.3,1.6,0.8,2.2C157.2,56.8,157.9,57.1,158.8,57.1 M158.8,50.2
			c1.1,0,1.9,0.4,2.6,1.1c0.7,0.7,1.1,1.6,1.1,2.7c0,1.1-0.4,2-1.1,2.7c-0.7,0.7-1.6,1.1-2.6,1.1c-1.1,0-2-0.4-2.7-1.1
			c-0.7-0.7-1.1-1.6-1.1-2.7c0-1.1,0.3-2,1.1-2.7C156.8,50.6,157.7,50.2,158.8,50.2"/>
		<path class="st5" d="M166.1,57.1v-0.9c0.3,0.2,0.7,0.5,1.1,0.7c0.5,0.2,1,0.3,1.5,0.3c1.2,0,2-0.5,2-1.4c0.1-0.5-0.3-0.8-0.6-1
			c-0.1-0.1-0.2-0.1-0.4-0.2l-0.5-0.2c-0.1,0-0.3-0.1-0.6-0.2c-0.3-0.1-0.6-0.2-0.8-0.2s-0.4-0.1-0.7-0.3c-0.2-0.1-0.4-0.2-0.5-0.4
			c-0.3-0.3-0.5-0.7-0.5-1.2c0-0.6,0.2-1,0.7-1.4c0.5-0.4,1.1-0.5,1.9-0.5c0.9,0,1.6,0.2,2.3,0.6v0.8c-0.7-0.5-1.5-0.7-2.3-0.7
			c-1.2,0-1.8,0.5-1.8,1.2c-0.1,0.4,0.2,0.7,0.5,0.8c0.1,0.1,0.2,0.1,0.3,0.2l0.4,0.1l0.5,0.1l0.4,0.1c0.3,0.1,0.6,0.2,0.7,0.2
			c0.2,0.1,0.4,0.2,0.6,0.3c0.2,0.1,0.4,0.3,0.6,0.4c0.3,0.3,0.5,0.7,0.5,1.3c0,0.7-0.3,1.2-0.8,1.6c-0.5,0.4-1.2,0.6-1.9,0.6
			C167.7,57.9,166.7,57.5,166.1,57.1"/>
	</g>
</g>
</svg>
