<?xml version="1.0" encoding="UTF-8"?>
<svg xmlns="http://www.w3.org/2000/svg" version="1.1" viewBox="0 0 685.71 645.8">
  <!-- Generator: Adobe Illustrator 29.0.1, SVG Export Plug-In . SVG Version: 2.1.0 Build 192)  -->
  <defs>
    <style>
      .st0 {
        fill: #18356e;
      }
    </style>
  </defs>
  <g id="Layer_1" focusable="false">
    <path class="st0" d="M657.09,623.2c5.53,0,10.76-2.49,14.25-6.79,3.48-4.3,4.84-9.93,3.7-15.34l-11.55-54.66c6.58-6.36,10.71-15.25,10.71-25.13,0-10.4-4.63-19.62-11.82-26.03v-189.83l-46.3,28.65v161.17c-7.19,6.41-11.82,15.63-11.82,26.03s4.14,18.77,10.72,25.13l-11.55,54.66c-1.14,5.41.22,11.05,3.7,15.34,3.48,4.3,8.72,6.79,14.25,6.79h35.73,0ZM672.79,194.64L371.55,8.16c-8.82-5.43-18.77-8.16-28.71-8.16s-19.9,2.73-28.67,8.16L12.93,194.64c-8.04,4.98-12.93,13.77-12.93,23.23s4.89,18.26,12.93,23.24l301.24,186.48c8.77,5.44,18.72,8.16,28.67,8.16s19.89-2.73,28.71-8.16l301.24-186.48c8.04-4.98,12.93-13.78,12.93-23.24s-4.89-18.25-12.93-23.23ZM342.83,482.05c-18.76,0-37.08-5.21-53.04-15.09l-175.71-108.78v187.31c0,55.44,102.47,100.31,228.76,100.31s228.79-44.88,228.79-100.31v-187.31l-175.71,108.78c-15.96,9.88-34.32,15.09-53.09,15.09Z"/>
  </g>
</svg>