<svg width="281" height="55" viewBox="0 0 281 55" fill="none" xmlns="http://www.w3.org/2000/svg">
<path d="M106.668 37.9771H102.996V48.2042H101.466V37.9771H97.833V36.7467H106.668V37.9771Z" fill="#001233"/>
<path d="M112.29 48.2042C112.252 47.9351 112.214 47.7044 112.175 47.5122C112.137 47.3199 112.137 47.1277 112.137 46.9354C111.831 47.3584 111.487 47.7044 111.028 47.9735C110.569 48.2427 110.072 48.3965 109.536 48.3965C108.657 48.3965 107.968 48.1658 107.509 47.7044C107.05 47.243 106.821 46.6279 106.821 45.8205C106.821 45.013 107.165 44.3594 107.815 43.8981C108.465 43.4367 109.345 43.206 110.492 43.206H112.175V42.3601C112.175 41.8603 112.022 41.4758 111.716 41.1682C111.41 40.8607 110.99 40.7453 110.416 40.7453C109.919 40.7453 109.536 40.8607 109.192 41.1298C108.886 41.3989 108.733 41.7065 108.733 42.0526H107.28V42.0141C107.242 41.3989 107.547 40.8222 108.159 40.3224C108.771 39.8226 109.575 39.5534 110.531 39.5534C111.487 39.5534 112.252 39.7841 112.826 40.2839C113.399 40.7838 113.705 41.4758 113.705 42.3986V46.4741C113.705 46.7817 113.705 47.0892 113.743 47.3584C113.782 47.6275 113.82 47.9351 113.935 48.2042H112.29ZM109.728 47.0508C110.301 47.0508 110.798 46.897 111.219 46.6279C111.678 46.3587 111.946 46.0127 112.099 45.6282V44.2441H110.378C109.766 44.2441 109.269 44.3979 108.886 44.7055C108.504 45.013 108.312 45.3975 108.312 45.8205C108.312 46.2049 108.427 46.5125 108.657 46.7048C108.924 46.9354 109.269 47.0508 109.728 47.0508Z" fill="#001233"/>
<path d="M118.754 42.8215L120.551 39.7072H122.349L119.595 43.8981L122.426 48.2042H120.666L118.792 44.9746L116.918 48.2042H115.159L117.989 43.8981L115.235 39.7072H116.995L118.754 42.8215Z" fill="#001233"/>
<path d="M131.911 41.0529L131.108 41.0145C130.687 41.0145 130.343 41.1298 130.075 41.322C129.807 41.5143 129.578 41.7834 129.425 42.1294V48.2042H127.895V39.7072H129.272L129.425 40.9376C129.654 40.5146 129.96 40.1686 130.305 39.8995C130.649 39.6688 131.07 39.515 131.528 39.515C131.643 39.515 131.758 39.515 131.873 39.5534C131.987 39.5534 132.064 39.5919 132.14 39.6303L131.911 41.0529Z" fill="#001233"/>
<path d="M136.845 48.358C135.659 48.358 134.741 47.9735 134.053 47.1661C133.364 46.3587 133.02 45.3591 133.02 44.0903V43.7443C133.02 42.5524 133.364 41.5143 134.091 40.7069C134.818 39.8995 135.659 39.515 136.653 39.515C137.801 39.515 138.642 39.861 139.254 40.5531C139.828 41.2451 140.134 42.1679 140.134 43.3213V44.2825H134.665L134.626 44.321C134.626 45.1284 134.856 45.8205 135.238 46.3203C135.621 46.8585 136.194 47.0892 136.921 47.0892C137.457 47.0892 137.916 47.0123 138.298 46.8585C138.681 46.7048 139.025 46.5125 139.331 46.2434L139.943 47.243C139.637 47.5506 139.254 47.7813 138.757 48.012C138.145 48.2427 137.571 48.358 136.845 48.358ZM136.615 40.7453C136.118 40.7453 135.659 40.976 135.277 41.3989C134.894 41.8219 134.703 42.3986 134.588 43.0522V43.0906H138.489V42.8984C138.489 42.2832 138.336 41.7834 137.992 41.3605C137.724 40.976 137.265 40.7453 136.615 40.7453Z" fill="#001233"/>
<path d="M143.806 37.631V39.6688H145.412V40.8222H143.806V45.9743C143.806 46.3587 143.882 46.6663 144.035 46.8201C144.188 46.9739 144.418 47.0508 144.685 47.0508C144.762 47.0508 144.877 47.0508 144.991 47.0123C145.106 46.9739 145.183 46.9739 145.259 46.9355L145.45 48.012C145.336 48.0889 145.183 48.1658 144.953 48.2427C144.724 48.3196 144.494 48.3196 144.303 48.3196C143.691 48.3196 143.194 48.1273 142.811 47.7429C142.429 47.3584 142.238 46.7817 142.238 45.9743V40.8222H140.899V39.6688H142.238V37.631H143.806Z" fill="#001233"/>
<path d="M152.641 46.9354C152.373 47.3968 152.029 47.7429 151.608 47.9735C151.187 48.2042 150.69 48.358 150.155 48.358C149.237 48.358 148.51 48.0504 148.013 47.4737C147.516 46.897 147.248 45.9742 147.248 44.7055V39.7072H148.778V44.7439C148.778 45.6667 148.893 46.2818 149.16 46.6279C149.428 46.9739 149.849 47.1277 150.384 47.1277C150.92 47.1277 151.379 47.0123 151.723 46.7817C152.067 46.551 152.335 46.2434 152.526 45.8205V39.7072H154.056V48.2042H152.679L152.641 46.9354Z" fill="#001233"/>
<path d="M160.367 41.0529L159.563 41.0145C159.143 41.0145 158.798 41.1298 158.531 41.322C158.263 41.5143 158.033 41.7834 157.88 42.1294V48.2042H156.351V39.7072H157.727L157.88 40.9376C158.11 40.5146 158.416 40.1686 158.76 39.8995C159.104 39.6688 159.525 39.515 159.984 39.515C160.099 39.515 160.214 39.515 160.328 39.5534C160.443 39.5534 160.519 39.5919 160.596 39.6303L160.367 41.0529Z" fill="#001233"/>
<path d="M163.197 39.7072L163.312 40.976C163.58 40.5146 163.962 40.1686 164.383 39.9379C164.803 39.7072 165.301 39.5534 165.836 39.5534C166.754 39.5534 167.442 39.8226 167.94 40.3608C168.437 40.8991 168.705 41.745 168.705 42.86V48.2427H167.175V42.8984C167.175 42.1679 167.022 41.6296 166.716 41.322C166.41 41.0145 165.989 40.8607 165.377 40.8607C164.918 40.8607 164.536 40.976 164.191 41.1682C163.847 41.3989 163.58 41.6681 163.388 42.0526V48.2427H161.858V39.7457H163.197V39.7072Z" fill="#001233"/>
<path d="M175.78 45.9358C175.78 45.5898 175.665 45.3206 175.397 45.0899C175.13 44.8593 174.671 44.667 173.944 44.5132C172.911 44.2825 172.146 43.975 171.611 43.5905C171.075 43.206 170.846 42.6677 170.846 42.0141C170.846 41.322 171.152 40.7453 171.726 40.2455C172.299 39.7457 173.064 39.515 174.02 39.515C175.015 39.515 175.78 39.7841 176.353 40.2839C176.927 40.7838 177.195 41.3989 177.195 42.1294V42.1679H175.742C175.742 41.7834 175.589 41.4758 175.283 41.1682C174.977 40.8607 174.556 40.7069 174.059 40.7069C173.523 40.7069 173.103 40.8222 172.835 41.0529C172.567 41.2836 172.452 41.5912 172.452 41.9372C172.452 42.2832 172.567 42.5524 172.797 42.7446C173.026 42.9369 173.523 43.1291 174.212 43.2444C175.283 43.4751 176.086 43.7827 176.583 44.1672C177.118 44.5517 177.348 45.0899 177.348 45.7436C177.348 46.5125 177.042 47.1277 176.43 47.5891C175.818 48.0504 175.015 48.2811 174.059 48.2811C172.988 48.2811 172.146 48.012 171.496 47.4737C170.884 46.9354 170.578 46.2818 170.616 45.5513V45.5129H172.07C172.108 46.0511 172.299 46.4741 172.682 46.7048C173.064 46.9739 173.523 47.0892 174.02 47.0892C174.556 47.0892 175.015 46.9739 175.321 46.7432C175.627 46.5894 175.78 46.2818 175.78 45.9358Z" fill="#001233"/>
<path d="M184.539 39.7072L184.653 40.8222C184.921 40.4377 185.265 40.0917 185.686 39.8995C186.107 39.6688 186.604 39.5534 187.178 39.5534C187.751 39.5534 188.21 39.6688 188.631 39.9379C189.052 40.2071 189.32 40.5915 189.549 41.1298C189.817 40.63 190.161 40.2839 190.62 39.9764C191.041 39.7072 191.576 39.5534 192.15 39.5534C192.991 39.5534 193.68 39.861 194.177 40.4377C194.674 41.0145 194.942 41.9372 194.942 43.1291V48.2042H193.412V43.0906C193.412 42.2448 193.259 41.6681 192.991 41.322C192.685 40.976 192.265 40.7838 191.691 40.7838C191.155 40.7838 190.735 40.976 190.429 41.322C190.123 41.7065 189.931 42.1679 189.855 42.7062V42.7831V48.1658H188.325V43.0522C188.325 42.2448 188.172 41.6681 187.866 41.322C187.56 40.976 187.139 40.7838 186.604 40.7838C186.145 40.7838 185.763 40.8991 185.457 41.0914C185.151 41.2836 184.921 41.5527 184.768 41.8988V48.2042H183.238V39.7072H184.539Z" fill="#001233"/>
<path d="M202.323 48.2042C202.285 47.9351 202.247 47.7044 202.209 47.5122C202.17 47.3199 202.17 47.1277 202.17 46.9354C201.864 47.3584 201.52 47.7044 201.061 47.9735C200.602 48.2427 200.105 48.3965 199.57 48.3965C198.69 48.3965 198.001 48.1658 197.542 47.7044C197.084 47.243 196.854 46.6279 196.854 45.8205C196.854 45.013 197.198 44.3594 197.848 43.8981C198.499 43.4367 199.378 43.206 200.526 43.206H202.209V42.3601C202.209 41.8603 202.056 41.4758 201.75 41.1682C201.444 40.8607 201.023 40.7453 200.449 40.7453C199.952 40.7453 199.57 40.8607 199.225 41.1298C198.919 41.3989 198.766 41.7065 198.766 42.0526H197.313V42.0141C197.275 41.3989 197.581 40.8222 198.193 40.3224C198.805 39.8226 199.608 39.5534 200.564 39.5534C201.52 39.5534 202.285 39.7841 202.859 40.2839C203.432 40.7838 203.738 41.4758 203.738 42.3986V46.4741C203.738 46.7817 203.738 47.0892 203.777 47.3584C203.815 47.6275 203.853 47.9351 203.968 48.2042H202.323ZM199.761 47.0508C200.334 47.0508 200.832 46.897 201.252 46.6279C201.711 46.3587 201.979 46.0127 202.132 45.6282V44.2441H200.411C199.799 44.2441 199.302 44.3979 198.919 44.7055C198.537 45.013 198.346 45.3975 198.346 45.8205C198.346 46.2049 198.46 46.5125 198.69 46.7048C198.958 46.9354 199.302 47.0508 199.761 47.0508Z" fill="#001233"/>
<path d="M205.536 44.0903C205.536 42.7062 205.842 41.6296 206.416 40.7838C206.99 39.9379 207.793 39.515 208.864 39.515C209.361 39.515 209.782 39.5919 210.164 39.7841C210.547 39.9764 210.891 40.2455 211.159 40.5915V35.9009H212.688V48.1658H211.426L211.235 47.1277C210.967 47.5122 210.623 47.8197 210.202 48.0504C209.82 48.2427 209.323 48.358 208.787 48.358C207.755 48.358 206.951 47.9735 206.378 47.243C205.804 46.4741 205.498 45.5129 205.498 44.2825V44.0903H205.536ZM207.066 44.2825C207.066 45.1284 207.257 45.8205 207.602 46.3587C207.946 46.8585 208.481 47.1277 209.246 47.1277C209.705 47.1277 210.088 47.0123 210.394 46.8201C210.7 46.6279 210.967 46.3203 211.159 45.9358V41.9757C210.967 41.6296 210.7 41.3605 210.394 41.1298C210.088 40.9376 209.705 40.8222 209.246 40.8222C208.52 40.8222 207.946 41.1298 207.602 41.745C207.257 42.3601 207.066 43.1675 207.066 44.1287V44.2825Z" fill="#001233"/>
<path d="M218.463 48.358C217.278 48.358 216.36 47.9735 215.671 47.1661C214.983 46.3587 214.639 45.3591 214.639 44.0903V43.7443C214.639 42.5524 214.983 41.5143 215.71 40.7069C216.436 39.8995 217.278 39.515 218.272 39.515C219.42 39.515 220.261 39.861 220.873 40.5531C221.447 41.2451 221.753 42.1679 221.753 43.3213V44.2825H216.283L216.245 44.321C216.245 45.1284 216.475 45.8205 216.857 46.3203C217.239 46.8585 217.813 47.0892 218.54 47.0892C219.075 47.0892 219.534 47.0123 219.917 46.8585C220.299 46.7048 220.643 46.5125 220.949 46.2434L221.561 47.243C221.255 47.5506 220.873 47.7813 220.376 48.012C219.764 48.2427 219.152 48.358 218.463 48.358ZM218.196 40.7453C217.698 40.7453 217.239 40.976 216.857 41.3989C216.475 41.8219 216.283 42.3986 216.169 43.0522V43.0906H220.07V42.8984C220.07 42.2832 219.917 41.7834 219.573 41.3605C219.343 40.976 218.846 40.7453 218.196 40.7453Z" fill="#001233"/>
<path d="M230.817 48.358C229.632 48.358 228.714 47.9735 228.025 47.1661C227.337 46.3587 226.993 45.3591 226.993 44.0903V43.7443C226.993 42.5524 227.337 41.5143 228.064 40.7069C228.79 39.8995 229.632 39.515 230.626 39.515C231.774 39.515 232.615 39.861 233.227 40.5531C233.801 41.2451 234.107 42.1679 234.107 43.3213V44.2825H228.637L228.599 44.321C228.599 45.1284 228.829 45.8205 229.211 46.3203C229.593 46.8585 230.167 47.0892 230.894 47.0892C231.429 47.0892 231.888 47.0123 232.271 46.8585C232.653 46.7048 232.997 46.5125 233.303 46.2434L233.915 47.243C233.609 47.5506 233.227 47.7813 232.73 48.012C232.118 48.2427 231.544 48.358 230.817 48.358ZM230.588 40.7453C230.091 40.7453 229.632 40.976 229.249 41.3989C228.867 41.8219 228.676 42.3986 228.561 43.0522V43.0906H232.462V42.8984C232.462 42.2832 232.309 41.7834 231.965 41.3605C231.697 40.976 231.238 40.7453 230.588 40.7453Z" fill="#001233"/>
<path d="M240.953 48.2042C240.914 47.9351 240.876 47.7044 240.838 47.5122C240.8 47.3199 240.8 47.1277 240.8 46.9354C240.494 47.3584 240.15 47.7044 239.691 47.9735C239.232 48.2427 238.734 48.3965 238.199 48.3965C237.319 48.3965 236.631 48.1658 236.172 47.7044C235.713 47.243 235.483 46.6279 235.483 45.8205C235.483 45.013 235.828 44.3594 236.478 43.8981C237.128 43.4367 238.008 43.206 239.155 43.206H240.838V42.3601C240.838 41.8603 240.685 41.4758 240.379 41.1682C240.073 40.8607 239.652 40.7453 239.079 40.7453C238.581 40.7453 238.199 40.8607 237.855 41.1298C237.549 41.3989 237.396 41.7065 237.396 42.0526H235.942V42.0141C235.904 41.3989 236.21 40.8222 236.822 40.3224C237.434 39.8226 238.237 39.5534 239.193 39.5534C240.15 39.5534 240.914 39.7841 241.488 40.2839C242.062 40.7838 242.368 41.4758 242.368 42.3986V46.4741C242.368 46.7817 242.368 47.0892 242.406 47.3584C242.444 47.6275 242.483 47.9351 242.597 48.2042H240.953ZM238.39 47.0508C238.964 47.0508 239.461 46.897 239.882 46.6279C240.341 46.3587 240.608 46.0127 240.761 45.6282V44.2441H239.04C238.428 44.2441 237.931 44.3979 237.549 44.7055C237.166 45.013 236.975 45.3975 236.975 45.8205C236.975 46.2049 237.09 46.5125 237.319 46.7048C237.587 46.9354 237.931 47.0508 238.39 47.0508Z" fill="#001233"/>
<path d="M249.443 45.9358C249.443 45.5898 249.329 45.3206 249.061 45.0899C248.793 44.8593 248.334 44.667 247.608 44.5132C246.575 44.2825 245.81 43.975 245.274 43.5905C244.739 43.206 244.51 42.6677 244.51 42.0141C244.51 41.322 244.816 40.7453 245.389 40.2455C245.963 39.7457 246.728 39.515 247.684 39.515C248.678 39.515 249.443 39.7841 250.017 40.2839C250.591 40.7838 250.859 41.3989 250.859 42.1294V42.1679H249.405C249.405 41.7834 249.252 41.4758 248.946 41.1682C248.64 40.8607 248.219 40.7069 247.722 40.7069C247.187 40.7069 246.766 40.8222 246.498 41.0529C246.231 41.2836 246.116 41.5912 246.116 41.9372C246.116 42.2832 246.231 42.5524 246.46 42.7446C246.69 42.9369 247.187 43.1291 247.875 43.2444C248.946 43.4751 249.749 43.7827 250.247 44.1672C250.782 44.5517 251.012 45.0899 251.012 45.7436C251.012 46.5125 250.706 47.1277 250.094 47.5891C249.482 48.0504 248.678 48.2811 247.722 48.2811C246.651 48.2811 245.81 48.012 245.16 47.4737C244.548 46.9354 244.242 46.2818 244.28 45.5513V45.5129H245.733C245.772 46.0511 245.963 46.4741 246.345 46.7048C246.728 46.9739 247.187 47.0892 247.684 47.0892C248.219 47.0892 248.678 46.9739 248.984 46.7432C249.29 46.5894 249.443 46.2818 249.443 45.9358Z" fill="#001233"/>
<path d="M255.448 45.0515L255.716 46.128H255.754L257.82 39.7072H259.541L255.984 49.5115C255.754 50.0882 255.448 50.588 255.066 51.0109C254.683 51.4339 254.148 51.6646 253.459 51.6646C253.345 51.6646 253.192 51.6645 253 51.6261C252.809 51.5877 252.656 51.5877 252.541 51.5492L252.694 50.3189C252.656 50.3189 252.771 50.3189 252.962 50.3189C253.192 50.3189 253.306 50.3573 253.383 50.3573C253.727 50.3573 253.995 50.2035 254.186 49.9344C254.377 49.6653 254.569 49.3192 254.722 48.9732L255.104 48.0889L251.968 39.7457H253.689L255.448 45.0515Z" fill="#001233"/>
<path fill-rule="evenodd" clip-rule="evenodd" d="M116.268 26.7118L112.864 14.7929L109.422 26.7118H103.953L98.4067 8.103H103.188L107.012 21.2907L110.569 8.103H115.159L118.678 21.2907L122.579 8.103H127.321L121.737 26.7118H116.268ZM192.188 17.4459C192.188 11.6787 196.089 7.41094 201.52 7.41094C207.41 7.41094 210.776 11.3326 210.776 17.5612C210.776 17.9072 210.776 18.2917 210.738 18.6377H197.351C197.466 21.1753 199.493 23.0208 202.285 23.0208C204.886 23.0208 206.378 21.4829 206.913 20.6755L210.24 23.1746C209.514 24.5203 206.951 27.3654 202.247 27.3654C196.089 27.4039 192.188 23.1746 192.188 17.4459ZM197.466 15.3697H205.651C205.536 13.0243 203.853 11.5249 201.558 11.5249C199.225 11.5249 197.695 13.1781 197.466 15.3697ZM224.965 7.75697V12.2554C224.965 12.2554 224.086 11.8325 222.938 11.8325C219.802 11.8325 218.272 14.5238 218.272 17.1383V26.6734H213.836V8.103H218.272V9.91006C218.272 9.91006 220.032 7.44939 223.13 7.44939C224.468 7.44939 224.965 7.75697 224.965 7.75697ZM229.632 8.14145V4.41199H234.374V8.14145H238.046V12.6014H234.374L234.298 19.522C234.298 22.2903 235.33 22.9824 237.243 22.9824C237.549 22.9824 237.74 22.9824 238.122 22.9439L238.084 26.7118C238.084 26.7118 237.204 27.4423 235.828 27.4423C231.391 27.4423 229.593 24.7125 229.593 19.6758L229.555 12.6399H227.681L227.643 8.1799H229.632V8.14145ZM259.579 8.14145V26.6349H255.142V25.1355C255.142 25.1355 253.421 27.4039 249.788 27.4039C244.969 27.4039 240.341 22.9055 240.341 17.2921C240.341 11.6402 245.007 7.41094 249.788 7.41094C253.498 7.41094 255.142 9.60247 255.142 9.60247V8.14145H259.579ZM250.361 11.8325C247.263 11.8325 244.777 14.2547 244.777 17.2921C244.777 20.291 247.263 22.9824 250.361 22.9824C253.651 22.9824 255.066 20.4832 255.066 20.4832V14.1393C255.066 14.1393 253.651 11.8325 250.361 11.8325ZM261.07 26.6734L267.84 17.0614L261.606 8.14145H266.846L270.556 13.5242L274.227 8.14145H279.467L273.271 17.0614L280.079 26.6734H274.572L270.594 20.637L266.578 26.6734H261.07ZM190.161 -0.00952148V26.6349H185.686V25.1739C185.686 25.1739 184.156 27.3654 180.523 27.3654C175.704 27.3654 171.573 22.867 171.573 17.2536C171.573 11.6018 175.742 7.41094 180.523 7.41094C184.233 7.41094 185.839 9.75626 185.839 9.75626V-0.00952148H190.161ZM181.135 11.8325C178.037 11.8325 176.01 14.2547 176.01 17.2921C176.01 20.291 178.037 22.9824 181.135 22.9824C184.424 22.9824 185.724 20.6755 185.724 20.6755V14.1393C185.724 14.1393 184.424 11.8325 181.135 11.8325ZM169.049 15.2928V26.6349H164.383V15.485C164.383 13.0243 162.814 11.7171 160.634 11.7171C157.613 11.7171 155.892 13.9471 155.892 13.9471V26.6349H150.996V8.14145H155.892V10.1023C155.892 10.1023 157.804 7.41094 161.437 7.41094C165.989 7.41094 169.049 10.679 169.049 15.2928ZM129.272 19.4836V8.14145H133.938V19.2914C133.938 21.752 135.391 22.9824 137.571 22.9824C140.593 22.9824 142.467 20.8293 142.467 20.8293V8.14145H147.133V26.6349H142.544V24.7125C142.544 24.7125 140.478 27.3654 136.845 27.3654C132.255 27.4039 129.272 24.0974 129.272 19.4836Z" fill="#00CB9D"/>
<path fill-rule="evenodd" clip-rule="evenodd" d="M37.441 47.2815C38.5119 48.8963 38.8561 49.3192 39.5063 50.1651C42.1836 53.7407 46.5437 54.8557 48.9915 54.8557C56.6791 54.8557 59.7006 48.7041 61.001 44.6286C62.3014 40.5531 70.5245 15.6388 70.5245 15.6388C70.5245 15.6388 72.3221 10.6406 69.3771 5.64233C66.4321 0.644098 60.5421 0.0289307 60.1978 0.0289307H11.2419C11.2419 0.0289307 4.47221 0.298066 1.71844 5.45009C-1.07358 10.5637 0.3798 14.1009 0.647527 14.9852C0.877008 15.831 8.83235 40.0533 10.3622 44.667C11.8921 49.2423 14.6459 54.7788 22.257 54.8942C29.8681 55.0095 33.9223 47.2815 33.9223 47.2815L45.97 28.442C45.97 28.442 47.4616 26.3658 47.4616 22.0596C47.4616 17.7534 43.2545 11.0635 35.5669 11.0635C27.8793 11.0635 23.7104 17.5997 23.7104 22.0596C23.7104 26.558 25.3932 28.788 25.3932 28.788L28.7207 34.1323L33.3486 27.4808C33.3486 27.4808 31.551 24.7894 31.551 22.7901C31.551 20.8293 32.6984 18.8684 35.4904 18.8684C38.2824 18.8684 39.4681 21.1369 39.4681 22.7901C39.4681 24.4434 38.4736 25.9044 38.4736 25.9044C38.4736 25.9044 29.1797 39.1305 28.0705 40.9376C26.9613 42.7446 25.049 46.2818 22.1422 46.2818C19.2355 46.2818 18.0116 44.321 16.5965 40.0917C13.6514 31.0949 8.10566 13.3704 8.10566 13.3704C8.10566 13.3704 7.53196 11.1788 8.56462 9.56403C9.59729 7.98766 11.8538 7.91077 11.8538 7.91077H59.2417C60.3891 7.91077 64.252 9.29489 62.9516 13.1397C61.6895 16.946 56.2202 33.3633 53.6959 40.1302C53.2369 41.3221 51.86 46.3587 48.1883 46.3587C45.511 46.3587 44.2871 43.8596 41.6864 40.1302C40.0418 42.7062 38.7414 45.2822 37.441 47.2815Z" fill="#00CB9D"/>
</svg>
